# xmcd CD database file
#
# Track frame offsets:
#	150
#	10502
#	21792
#	31935
#	40937
#	51265
#	61232
#	71277
#	78255
#	89604
#	100352
#	109285
#	120575
#	129654
#	140630
#	155047
#	165217
#	178130
#	193195
#	206797
#
# Disc length: 2874 seconds
#
# Revision: 0
# Processed by: cddbd v1.5.2PL0 Copyright (c) Steve Scherf et al.
# Submitted via: CDex 1.70beta2
#
DISCID=140b3814
DTITLE=Gibson Don - Hurtin´ Inside - I Love You So Much It Hurts
DYEAR=2004
DGENRE=Country
TTITLE0=Hurtin' Inside
TTITLE1=Lonely Street
TTITLE2=Foolish Me
TTITLE3=That Lonesome Valley
TTITLE4=Big Hearted Me
TTITLE5=It Only Hurts For A Little While
TTITLE6=Midnight
TTITLE7=Won't'Cha Come Back To Me
TTITLE8=My Tears Don't Show
TTITLE9=Satisfied
TTITLE10=I Love You So Much It Hurts
TTITLE11=Born To Lose
TTITLE12=Foggy River
TTITLE13=After The Heartache
TTITLE14=Almost
TTITLE15=Sweet Dreams
TTITLE16=Driftwood On The River
TTITLE17=The Streets Of Laredo
TTITLE18=It Makes No Difference Now
TTITLE19=My Hands Are Tied
EXTD=YEAR: 2004
EXTT0=
EXTT1=
EXTT2=
EXTT3=
EXTT4=
EXTT5=
EXTT6=
EXTT7=
EXTT8=
EXTT9=
EXTT10=
EXTT11=
EXTT12=
EXTT13=
EXTT14=
EXTT15=
EXTT16=
EXTT17=
EXTT18=
EXTT19=
PLAYORDER=
